<svg width="35" height="24" viewBox="0 0 35 24" fill="none" xmlns="http://www.w3.org/2000/svg">
<path d="M21.6264 3.35263V10.9052H26.7105C29.9895 10.9052 29.9895 10.2422 31.279 7.36837H31.8315L30.763 11.458L31.8315 15.5473H31.279C29.9895 12.6369 29.8419 12.0105 26.7105 12.0105H21.5895V19.5262C21.5895 22.6947 21.8106 23.3948 25.0156 23.3948V23.9473H15.4367V23.3948C18.5684 23.3948 18.8262 22.7684 18.8262 19.5262V15.9894H9.87365L7.55261 19.4157C5.71052 22.1419 4.60524 23.3948 8.62104 23.3948V23.9473H0V23.3948C2.46843 23.3948 3.97893 22.4 5.74736 19.8211L18.3105 1.51051C17.7209 0.736837 16.542 0.552616 14.3316 0.552616V0H33.342L35 5.89474H34.4104C33.2683 2.50526 31.0946 1.10526 28.0368 1.10526H23.9104C22.1421 1.10526 21.6264 1.6579 21.6264 3.35263ZM10.6105 14.8841H18.8262V4.19999C18.8262 3.75788 18.8262 3.38946 18.7894 3.05788L10.6105 14.8841Z" fill="#273F1C"/>
</svg>
