<svg width="1114" height="100" viewBox="0 0 1114 100" fill="none" xmlns="http://www.w3.org/2000/svg">
<path d="M507.036 61.8681H508.838L502.23 80.9692C496.344 83.1316 484.451 85.2939 474.36 85.2939C449.012 85.2939 432.073 70.0371 432.073 46.2509C432.073 23.4258 449.012 4.80529 472.077 4.80529C487.094 4.80529 493.701 13.6951 499.948 13.6951C504.633 13.6951 507.156 5.16569 508.958 0H511.12L500.428 29.1922H498.506C494.302 15.2568 485.652 8.28913 472.678 8.28913C454.298 8.28913 442.645 23.7862 442.645 43.8483C442.645 64.8714 455.139 81.8101 477.003 81.8101C489.496 81.8101 499.948 75.6834 507.036 61.8681Z" fill="#273F1C"/>
<path d="M413.924 70.1572C413.924 80.4886 415.125 82.1704 425.096 82.1704V83.9724H393.621V82.1704C402.751 82.1704 404.794 79.8879 404.794 70.1572V19.7016C404.794 9.49039 402.631 7.68839 393.621 7.68839V5.88641H425.096V7.68839C415.846 7.68839 413.924 9.85078 413.924 19.7016V70.1572Z" fill="#273F1C"/>
<path d="M402.431 99.4695C366.391 99.4695 358.583 46.371 337.199 45.7703V69.5565C337.199 79.8879 337.92 82.1704 348.371 82.1704V83.9724H316.897V82.1704C327.108 82.1704 328.069 79.8879 328.069 69.5565V16.4581C328.069 9.97091 326.988 7.68839 317.858 7.68839V5.88641H347.17C368.073 5.88641 377.323 13.0944 377.323 25.3478C377.323 37.7215 367.592 45.6502 350.414 45.8905V46.0106C376.602 52.6179 379.005 97.6675 402.431 97.6675V99.4695ZM337.199 42.4066H346.93C358.462 42.4066 366.511 36.7604 366.511 26.1888C366.511 15.3769 358.462 9.37025 346.81 9.37025C343.566 9.37025 340.322 9.61051 337.199 9.97091V42.4066Z" fill="#273F1C"/>
<path d="M264.225 16.8185V41.4456H280.803C291.495 41.4456 291.495 39.2832 295.699 29.9129H297.501L294.017 43.1274L297.501 56.5822H295.699C291.495 47.0918 291.014 45.0495 280.803 45.0495H264.225V73.0404C264.225 78.5665 265.906 80.3684 271.673 80.3684H287.53C297.621 80.3684 301.706 75.5632 307.833 64.7512H309.634L303.027 83.9724H244.042V82.1704C253.773 82.1704 255.095 79.8879 255.095 69.3163V19.5815C255.095 9.37025 253.052 7.68839 244.042 7.68839V5.88641H302.427L307.833 25.1076H305.91C302.186 14.0554 295.098 9.49038 285.128 9.49038H271.673C265.906 9.49038 264.225 11.2924 264.225 16.8185Z" fill="#273F1C"/>
<path d="M154.053 71.4787C153.333 79.1671 154.414 82.1704 164.265 82.1704V83.9724H138.196V82.1704C147.807 82.1704 149.488 79.1671 150.209 71.4787L155.015 16.9386C155.615 10.5716 153.813 7.68839 143.121 7.68839V5.88641H161.622L187.33 69.1961L209.915 5.88641H231.178V7.68839C221.928 7.68839 219.405 9.85078 220.366 19.7016L225.052 70.1572C226.013 80.849 227.815 82.1704 237.786 82.1704V83.9724H206.311V82.1704C215.441 82.1704 216.883 80.3684 215.922 70.1572L210.756 14.7762L185.768 85.1737H183.966L158.498 22.4647H158.378L154.053 71.4787Z" fill="#273F1C"/>
<path d="M105.976 69.5565C105.976 79.8879 106.697 82.1704 117.148 82.1704V83.9724H85.6735V82.1704C95.8848 82.1704 96.8458 79.8879 96.8458 69.5565V49.4944L76.6636 15.2567C73.7805 10.3313 72.0986 7.68839 63.0887 7.68839V5.88641H91.3198V7.68839C82.9105 7.68839 85.7937 12.8541 88.1963 16.9386L104.414 44.4489L121.353 16.9386C126.158 9.12998 126.278 7.68839 116.427 7.68839V5.88641H139.973V7.68839C131.924 7.68839 130.483 9.37025 125.317 17.7795L105.976 49.4944V69.5565Z" fill="#273F1C"/>
<path d="M36.8806 20.3023C36.8806 20.1822 36.7604 20.062 36.7604 19.9419L22.8251 54.4199H50.936L36.8806 20.3023ZM0 83.9724V82.1704C5.76634 82.1704 8.76964 79.1671 12.2535 70.5176L34.598 15.0165C31.835 9.61052 29.3122 7.68839 23.3056 7.68839V5.88641H40.7248L66.7934 69.076C70.037 76.8846 72.3195 82.1704 80.1281 82.1704V83.9724H51.5367V82.1704C61.5076 82.1704 60.4265 77.4853 56.4621 67.9948L52.3776 58.0238H21.5036L16.9386 69.1961C12.9743 78.9269 13.5749 82.1704 23.0654 82.1704V83.9724H0Z" fill="#273F1C"/>
<path d="M1083.87 64.8713C1083.87 75.2027 1084.59 77.4852 1095.05 77.4852V79.2871H1063.57V77.4852C1073.78 77.4852 1074.74 75.2027 1074.74 64.8713V4.80512H1060.21C1051.32 4.80512 1049.39 11.1721 1047.23 20.4223H1045.31L1049.64 1.20114H1108.98L1113.31 20.4223H1111.38C1108.98 10.2111 1106.46 4.80512 1098.05 4.80512H1083.87V64.8713Z" fill="#273F1C"/>
<path d="M975.229 64.631C975.229 75.0825 976.55 77.4852 986.401 77.4852V79.2871H960.333V77.4852C969.943 77.4852 971.385 75.0825 971.385 64.631V12.2533C966.099 5.88631 963.336 3.00314 957.089 3.00314V1.20114H974.148L1024.96 62.9492H1025.2V16.3378C1025.2 5.76618 1023.76 3.00314 1014.15 3.00314V1.20114H1040.22V3.00314C1030.61 3.00314 1029.05 5.76618 1029.05 16.3378V80.4885H1027.49L975.469 17.1788H975.229V64.631Z" fill="#273F1C"/>
<path d="M882.225 40.1242C882.225 58.8649 892.677 76.8847 911.658 76.8847C930.759 76.8847 941.09 58.8649 941.09 40.1242C941.09 21.6239 930.639 3.604 911.658 3.604C892.437 3.604 882.225 21.8641 882.225 40.1242ZM871.414 40.2444C871.414 18.14 889.313 3.96762e-05 911.658 3.96762e-05C934.002 3.96762e-05 951.902 18.14 951.902 40.2444C951.902 62.4688 934.002 80.4887 911.658 80.4887C889.313 80.4887 871.414 62.4688 871.414 40.2444Z" fill="#273F1C"/>
<path d="M783.329 66.7934C782.609 74.4819 783.69 77.4852 793.541 77.4852V79.2871H767.472V77.4852C777.082 77.4852 778.764 74.4819 779.485 66.7934L784.29 12.2533C784.891 5.88631 783.089 3.00314 772.397 3.00314V1.20114H790.898L816.606 64.5109L839.191 1.20114H860.454V3.00314C851.204 3.00314 848.681 5.16551 849.642 15.0164L854.327 65.4719C855.289 76.1637 857.09 77.4852 867.061 77.4852V79.2871H835.587V77.4852C844.717 77.4852 846.158 75.6832 845.197 65.4719L840.032 10.0909L815.044 80.4885H813.242L787.774 17.7794H787.654L783.329 66.7934Z" fill="#273F1C"/>
<path d="M716.352 12.1332V36.7603H732.931C743.622 36.7603 743.622 34.5979 747.827 25.2276H749.629L746.145 38.4422L749.629 51.897H747.827C743.622 42.4065 743.142 40.3643 732.931 40.3643H716.352V68.3551C716.352 73.8812 718.034 75.6832 723.801 75.6832H739.658C749.749 75.6832 753.834 70.8779 759.96 60.066H761.762L755.155 79.2871H696.17V77.4852C705.901 77.4852 707.222 75.2027 707.222 64.631V14.8962C707.222 4.68499 705.18 3.00314 696.17 3.00314V1.20114H754.554L759.96 20.4223H758.038C754.314 9.37015 747.226 4.80512 737.255 4.80512H723.801C718.034 4.80512 716.352 6.60711 716.352 12.1332Z" fill="#273F1C"/>
<path d="M704.978 94.7842C668.939 94.7842 661.13 41.6857 639.747 41.0851V64.8713C639.747 75.2027 640.467 77.4852 650.919 77.4852V79.2871H619.444V77.4852C629.656 77.4852 630.617 75.2027 630.617 64.8713V11.7728C630.617 5.28565 629.535 3.00314 620.405 3.00314V1.20114H649.718C670.621 1.20114 679.871 8.40909 679.871 20.6626C679.871 33.0362 670.14 40.9649 652.961 41.2052V41.3253C679.15 47.9326 681.553 92.9822 704.978 92.9822V94.7842ZM639.747 37.7214H649.477C661.01 37.7214 669.059 32.0752 669.059 21.5035C669.059 10.6916 661.01 4.68499 649.357 4.68499C646.114 4.68499 642.87 4.92525 639.747 5.28565V37.7214Z" fill="#273F1C"/>
<path d="M569.945 12.1332V36.7603H586.524C597.215 36.7603 597.215 34.5979 601.42 25.2276H603.222L599.738 38.5623L603.222 51.897H601.42C597.215 42.4065 596.735 40.3643 586.524 40.3643H569.825V64.8713C569.825 75.2027 570.546 77.4852 580.997 77.4852V79.2871H549.763V77.4852C559.974 77.4852 560.815 75.4429 560.815 64.8713V14.8962C560.815 4.68499 558.773 3.00314 549.763 3.00314V1.20114H608.147L613.553 20.4223H611.631C607.907 9.37015 600.819 4.80512 590.848 4.80512H577.393C571.627 4.80512 569.945 6.60711 569.945 12.1332Z" fill="#273F1C"/>
</svg>
